# xmcd
#
# Track frame offsets:
#	150
#	13917
#	27665
#	35805
#	50857
#	67092
#	79296
#	95137
#	109419
#	119741
#	135355
#	150940
#	160448
#	178489
#	191570
#	203722
#
# Disc length: 2876 seconds
# Revision: 1
# Processed by: cddbd v1.5.2PL0 Copyright (c) Steve Scherf et al.
# Submitted via: dBpowerAMP V12.0
#
DISCID=f80b3a10
DTITLE=Various Artist - Hogan's House of Music
DYEAR=2015
DGENRE=Bluegrass
TTITLE0=Ron Block - Smartville
TTITLE1=Ron Block - Hogan's House of Boogie
TTITLE2=Ron Block - Wolves A-Howling
TTITLE3=Ron Block with Stuart Duncan, Alison Krauss and Adam Steffey - The Spotted Pony
TTITLE4=Ron Block - Clinch Mountain Backstep
TTITLE5=Ron Block with Tim Crouch - Gentle Annie
TTITLE6=Ron Block with Stuart Duncan and Alison Krauss - Mooney Flat Road
TTITLE7=Ron Block - Mollie Catherine Carter
TTITLE8=Ron Block with Sierra Hull - Seneca Square Dance
TTITLE9=Ron Block - Calico
TTITLE10=Ron Block - You Are My Sunshine
TTITLE11=Ron Block - Lonesome Road Blues
TTITLE12=Ron Block with Sam Bush and Jerry Douglas - '65 Mustang Blues
TTITLE13=Ron Block - Brushy Fork of John's Creek
TTITLE14=Ron Block - Carter's Creek Pike
TTITLE15=Ron Block - Home Sweet Home
EXTD=
EXTT0=
EXTT1=
EXTT2=
EXTT3=
EXTT4=
EXTT5=
EXTT6=
EXTT7=
EXTT8=
EXTT9=
EXTT10=
EXTT11=
EXTT12=
EXTT13=
EXTT14=
EXTT15=
PLAYORDER=
